<svg width="133" height="130" viewBox="0 0 133 130" fill="none" xmlns="http://www.w3.org/2000/svg">
<path fill-rule="evenodd" clip-rule="evenodd" d="M2 2H32.9899V1H2V2ZM2 28.9485H1V2H2V28.9485ZM9.74748 65.329V29.9485H2L2 28.9485H9.74748H10.7475V65.329H9.74748ZM32.9899 58.5919L32.9899 92.2776H31.9899H2H1V65.329H2H9.74748V66.329H2L2 91.2776H31.9899V58.5919H32.9899ZM58.2983 2.00001L82.8428 2L50.0131 45.9374L50.7019 46.3256L50.5509 46.4651L99.6486 86.6729L99.6513 86.8968L99.9191 86.8944L102.529 89.0319H72.5795L33.717 57.9054L32.9899 58.5919L60.8808 80.9308V101.21H56.7488V101.71V102.21V127.658V128.658H57.7488H87.7388H88.7388V90.0319H100.651V127.658V128.658H101.651H130.125H131.125V127.658V102.71V101.71H130.125H126.993V68.1256H131.125V67.1256H132.125V40.1771H131.125V39.1771H100.135V40.1771H131.125V67.1256L126.993 67.1256H125.993V101.71H126.993V102.71H130.125V127.658H101.651V90.0319H103.75L104.485 89.3535L100.643 86.2073L100.097 40.1774L99.0975 40.1864L99.6333 85.3803L88.7388 76.4584V40.1771H87.7388V39.1771H56.7488V40.1771H55.8456L84.1447 2.30311L83.6068 2V1.99987V1H58.2983L58.2983 2.00001ZM58.2983 2.00001L57.4202 1.5215L33.9899 34.0345V2H32.9899V35.6857H33.9899V35.6677L34.0229 35.6857L58.2983 2.00001ZM56.7488 40.1771V50.2607L87.7388 75.6395V40.1771L56.7488 40.1771ZM72.2438 90.0319H87.7388V127.658H57.7488V102.21H60.8808V101.71H61.8808V81.7318L72.2438 90.0319ZM51.5142 45.9739L55.7488 40.3066V49.4418L51.5142 45.9739Z" fill="white"/>
<path d="M32.9899 2V2.5H33.4899V2H32.9899ZM32.9899 1H33.4899V0.5H32.9899V1ZM2 1V0.5H1.5V1H2ZM1 28.9485H0.5V29.4485H1V28.9485ZM1 2V1.5H0.5V2H1ZM9.74748 29.9485H10.2475V29.4485H9.74748V29.9485ZM2 29.9485L1.5 29.9485L1.5 30.4485H2V29.9485ZM10.7475 28.9485H11.2475V28.4485H10.7475V28.9485ZM10.7475 65.329V65.829H11.2475V65.329H10.7475ZM32.9899 92.2776V92.7776H33.4899L33.4899 92.2776H32.9899ZM1 92.2776H0.5V92.7776H1V92.2776ZM1 65.329V64.829H0.5V65.329H1ZM9.74748 66.329V66.829H10.2475V66.329H9.74748ZM2 66.329V65.829H1.5L1.5 66.329H2ZM2 91.2776H1.5L1.5 91.7776H2V91.2776ZM31.9899 91.2776V91.7776H32.4899V91.2776H31.9899ZM31.9899 58.5919V58.0919H31.4899V58.5919H31.9899ZM82.8428 2L83.2433 2.29928L83.8405 1.5L82.8428 1.5V2ZM50.0131 45.9374L49.6126 45.6381L49.2722 46.0937L49.7676 46.3729L50.0131 45.9374ZM50.7019 46.3256L51.0411 46.693L51.5455 46.2272L50.9474 45.8901L50.7019 46.3256ZM50.5509 46.4651L50.2117 46.0977L49.7893 46.4877L50.2341 46.8519L50.5509 46.4651ZM99.6486 86.6729L100.149 86.667L100.146 86.4338L99.9654 86.2861L99.6486 86.6729ZM99.6513 86.8968L99.1513 86.9027L99.1572 87.4013L99.6557 87.3968L99.6513 86.8968ZM99.9191 86.8944L100.236 86.5076L100.096 86.3928L99.9146 86.3944L99.9191 86.8944ZM102.529 89.0319V89.5319H103.929L102.846 88.645L102.529 89.0319ZM72.5795 89.0319L72.2669 89.4221L72.404 89.5319H72.5795V89.0319ZM33.717 57.9054L34.0296 57.5152L33.6901 57.2432L33.3738 57.5418L33.717 57.9054ZM60.8808 80.9308H61.3808V80.6907L61.1934 80.5406L60.8808 80.9308ZM60.8808 101.21V101.71H61.3808V101.21H60.8808ZM56.7488 101.21V100.71H56.2488V101.21H56.7488ZM56.7488 128.658H56.2488V129.158H56.7488V128.658ZM88.7388 128.658V129.158H89.2388V128.658H88.7388ZM88.7388 90.0319V89.5319H88.2388V90.0319H88.7388ZM100.651 90.0319H101.151V89.5319H100.651V90.0319ZM100.651 128.658H100.151V129.158H100.651V128.658ZM131.125 128.658V129.158H131.625V128.658H131.125ZM131.125 101.71H131.625V101.21H131.125V101.71ZM126.993 68.1256V67.6256H126.493V68.1256H126.993ZM131.125 68.1256V68.6256H131.625V68.1256H131.125ZM132.125 67.1256V67.6256H132.625V67.1256H132.125ZM132.125 40.1771H132.625V39.6771H132.125V40.1771ZM131.125 39.1771H131.625V38.6771H131.125V39.1771ZM100.135 39.1771V38.6771H99.6347V39.1771H100.135ZM100.135 40.1771H99.6347V40.6771H100.135V40.1771ZM126.993 67.1256V66.6256V67.1256ZM125.993 67.1256V66.6256H125.493V67.1256H125.993ZM125.993 101.71H125.493V102.21H125.993V101.71ZM126.993 102.71H126.493V103.21H126.993V102.71ZM130.125 102.71H130.625V102.21H130.125V102.71ZM130.125 127.658V128.158H130.625V127.658H130.125ZM101.651 127.658H101.151V128.158H101.651V127.658ZM101.651 90.0319V89.5319H101.151V90.0319H101.651ZM103.75 90.0319V90.5319H103.946L104.089 90.3992L103.75 90.0319ZM104.485 89.3535L104.824 89.7208L105.246 89.3308L104.802 88.9666L104.485 89.3535ZM100.643 86.2073L100.143 86.2132L100.146 86.4464L100.326 86.5941L100.643 86.2073ZM100.097 40.1774L100.597 40.1715L100.592 39.6729L100.093 39.6774L100.097 40.1774ZM99.0975 40.1864L99.093 39.6864L98.5916 39.6909L98.5975 40.1923L99.0975 40.1864ZM99.6333 85.3803L99.3165 85.7671L100.146 86.4464L100.133 85.3744L99.6333 85.3803ZM88.7388 76.4584H88.2388V76.6952L88.422 76.8452L88.7388 76.4584ZM88.7388 40.1771H89.2388V39.6771H88.7388V40.1771ZM87.7388 39.1771H88.2388V38.6771H87.7388V39.1771ZM56.7488 39.1771V38.6771H56.2488V39.1771H56.7488ZM55.8456 40.1771L55.445 39.8778L54.8478 40.6771H55.8456V40.1771ZM84.1447 2.30311L84.5452 2.60239L84.8857 2.14674L84.3902 1.86751L84.1447 2.30311ZM83.6068 2H83.1068V2.29217L83.3613 2.43561L83.6068 2ZM83.6068 1H84.1068V0.5H83.6068V1ZM58.2983 1V0.5H57.7983V0.999998L58.2983 1ZM57.4202 1.5215L57.6595 1.08246L57.2724 0.871495L57.0146 1.22918L57.4202 1.5215ZM33.9899 34.0345H33.4899V35.5835L34.3956 34.3268L33.9899 34.0345ZM33.9899 2H34.4899V1.5H33.9899V2ZM32.9899 2V1.5H32.4899V2H32.9899ZM32.9899 35.6857H32.4899V36.1857H32.9899V35.6857ZM33.9899 35.6857V36.1857H34.4899V35.6857H33.9899ZM33.9899 35.6677L34.2292 35.2287L33.4899 34.8258V35.6677H33.9899ZM34.0229 35.6857L33.7836 36.1247L34.1708 36.3357L34.4285 35.978L34.0229 35.6857ZM56.7488 50.2607H56.2488V50.4976L56.4321 50.6476L56.7488 50.2607ZM87.7388 75.6395L87.422 76.0263L88.2388 76.6952V75.6395H87.7388ZM87.7388 90.0319H88.2388V89.5319H87.7388V90.0319ZM72.2438 90.0319L71.9312 90.4221L72.0683 90.5319H72.2438V90.0319ZM87.7388 127.658V128.158H88.2388V127.658H87.7388ZM57.7488 127.658H57.2488V128.158H57.7488V127.658ZM57.7488 102.21V101.71H57.2488V102.21H57.7488ZM60.8808 102.21V102.71H61.3808V102.21H60.8808ZM60.8808 101.71V101.21H60.3808V101.71H60.8808ZM61.8808 101.71V102.21H62.3808V101.71H61.8808ZM61.8808 81.7318L62.1934 81.3415L61.3808 80.6907V81.7318H61.8808ZM55.7488 40.3066H56.2488V38.802L55.3483 40.0073L55.7488 40.3066ZM51.5142 45.9739L51.1137 45.6747L50.8274 46.0578L51.1974 46.3608L51.5142 45.9739ZM55.7488 49.4418L55.4321 49.8287L56.2488 50.4976V49.4418H55.7488ZM32.9899 1.5H2V2.5H32.9899V1.5ZM32.4899 1V2H33.4899V1H32.4899ZM2 1.5H32.9899V0.5H2V1.5ZM2.5 2V1H1.5V2H2.5ZM1 29.4485H2V28.4485H1V29.4485ZM0.5 2V28.9485H1.5V2H0.5ZM2 1.5H1V2.5H2V1.5ZM2.5 28.9485V2H1.5V28.9485H2.5ZM9.24748 29.9485V65.329H10.2475V29.9485H9.24748ZM2 30.4485H9.74748V29.4485H2V30.4485ZM1.5 28.9485L1.5 29.9485L2.5 29.9485L2.5 28.9485L1.5 28.9485ZM9.74748 28.4485H2V29.4485H9.74748V28.4485ZM10.7475 28.4485H9.74748V29.4485H10.7475V28.4485ZM11.2475 65.329V28.9485H10.2475V65.329H11.2475ZM9.74748 65.829H10.7475V64.829H9.74748V65.829ZM33.4899 92.2776V58.5919H32.4899L32.4899 92.2776H33.4899ZM31.9899 92.7776H32.9899V91.7776H31.9899V92.7776ZM2 92.7776H31.9899V91.7776H2V92.7776ZM1 92.7776H2V91.7776H1V92.7776ZM0.5 65.329V92.2776H1.5V65.329H0.5ZM2 64.829H1V65.829H2V64.829ZM9.74748 64.829H2V65.829H9.74748V64.829ZM10.2475 66.329V65.329H9.24748V66.329H10.2475ZM2 66.829H9.74748V65.829H2V66.829ZM2.5 91.2776L2.5 66.329H1.5L1.5 91.2776H2.5ZM31.9899 90.7776H2V91.7776H31.9899V90.7776ZM31.4899 58.5919V91.2776H32.4899V58.5919H31.4899ZM32.9899 58.0919H31.9899V59.0919H32.9899V58.0919ZM58.2983 2.50001L82.8428 2.5V1.5L58.2983 1.50001V2.50001ZM82.4422 1.70072L49.6126 45.6381L50.4137 46.2367L83.2433 2.29928L82.4422 1.70072ZM49.7676 46.3729L50.4563 46.7612L50.9474 45.8901L50.2587 45.5018L49.7676 46.3729ZM50.3627 45.9583L50.2117 46.0977L50.8901 46.8324L51.0411 46.693L50.3627 45.9583ZM50.2341 46.8519L99.3318 87.0597L99.9654 86.2861L50.8677 46.0782L50.2341 46.8519ZM99.1486 86.6788L99.1513 86.9027L100.151 86.8909L100.149 86.667L99.1486 86.6788ZM99.6557 87.3968L99.9236 87.3944L99.9146 86.3944L99.6468 86.3968L99.6557 87.3968ZM99.6023 87.2812L102.212 89.4187L102.846 88.645L100.236 86.5076L99.6023 87.2812ZM102.529 88.5319H72.5795V89.5319H102.529V88.5319ZM72.8921 88.6416L34.0296 57.5152L33.4045 58.2957L72.2669 89.4221L72.8921 88.6416ZM33.3738 57.5418L32.6467 58.2283L33.3332 58.9555L34.0603 58.269L33.3738 57.5418ZM32.6773 58.9822L60.5683 81.3211L61.1934 80.5406L33.3025 58.2016L32.6773 58.9822ZM60.3808 80.9308V101.21H61.3808V80.9308H60.3808ZM60.8808 100.71H56.7488V101.71H60.8808V100.71ZM56.2488 101.21V101.71H57.2488V101.21H56.2488ZM56.2488 101.71V102.21H57.2488V101.71H56.2488ZM56.2488 102.21V127.658H57.2488V102.21H56.2488ZM56.2488 127.658V128.658H57.2488V127.658H56.2488ZM56.7488 129.158H57.7488V128.158H56.7488V129.158ZM57.7488 129.158H87.7388V128.158H57.7488V129.158ZM87.7388 129.158H88.7388V128.158H87.7388V129.158ZM89.2388 128.658V90.0319H88.2388V128.658H89.2388ZM88.7388 90.5319H100.651V89.5319H88.7388V90.5319ZM100.151 90.0319V127.658H101.151V90.0319H100.151ZM100.151 127.658V128.658H101.151V127.658H100.151ZM100.651 129.158H101.651V128.158H100.651V129.158ZM101.651 129.158H130.125V128.158H101.651V129.158ZM130.125 129.158H131.125V128.158H130.125V129.158ZM131.625 128.658V127.658H130.625V128.658H131.625ZM131.625 127.658V102.71H130.625V127.658H131.625ZM131.625 102.71V101.71H130.625V102.71H131.625ZM131.125 101.21H130.125V102.21H131.125V101.21ZM130.125 101.21H126.993V102.21H130.125V101.21ZM127.493 101.71V68.1256H126.493V101.71H127.493ZM131.125 67.6256H126.993V68.6256H131.125V67.6256ZM130.625 67.1256V68.1256H131.625V67.1256H130.625ZM131.125 67.6256H132.125V66.6256H131.125V67.6256ZM132.625 67.1256V40.1771H131.625V67.1256H132.625ZM132.125 39.6771H131.125V40.6771H132.125V39.6771ZM131.625 40.1771V39.1771H130.625V40.1771H131.625ZM131.125 38.6771H100.135V39.6771H131.125V38.6771ZM99.6347 39.1771V40.1771H100.635V39.1771H99.6347ZM100.135 40.6771H131.125V39.6771H100.135V40.6771ZM130.625 40.1771V67.1256H131.625V40.1771H130.625ZM126.993 67.6256L131.125 67.6256V66.6256L126.993 66.6256V67.6256ZM126.993 66.6256H125.993V67.6256H126.993V66.6256ZM125.493 67.1256V101.71H126.493V67.1256H125.493ZM125.993 102.21H126.993V101.21H125.993V102.21ZM126.493 101.71V102.71H127.493V101.71H126.493ZM126.993 103.21H130.125V102.21H126.993V103.21ZM129.625 102.71V127.658H130.625V102.71H129.625ZM130.125 127.158H101.651V128.158H130.125V127.158ZM102.151 127.658V90.0319H101.151V127.658H102.151ZM101.651 90.5319H103.75V89.5319H101.651V90.5319ZM104.089 90.3992L104.824 89.7208L104.146 88.9861L103.411 89.6645L104.089 90.3992ZM104.802 88.9666L100.96 85.8205L100.326 86.5941L104.168 89.7403L104.802 88.9666ZM101.143 86.2014L100.597 40.1715L99.5975 40.1833L100.143 86.2132L101.143 86.2014ZM100.093 39.6774L99.093 39.6864L99.102 40.6863L100.102 40.6774L100.093 39.6774ZM98.5975 40.1923L99.1333 85.3862L100.133 85.3744L99.5975 40.1804L98.5975 40.1923ZM99.9501 84.9935L89.0556 76.0716L88.422 76.8452L99.3165 85.7671L99.9501 84.9935ZM89.2388 76.4584V40.1771H88.2388V76.4584H89.2388ZM88.7388 39.6771H87.7388V40.6771H88.7388V39.6771ZM88.2388 40.1771V39.1771H87.2388V40.1771H88.2388ZM87.7388 38.6771H56.7488V39.6771H87.7388V38.6771ZM56.2488 39.1771V40.1771H57.2488V39.1771H56.2488ZM56.7488 39.6771H55.8456V40.6771H56.7488V39.6771ZM56.2461 40.4764L84.5452 2.60239L83.7442 2.00383L55.445 39.8778L56.2461 40.4764ZM84.3902 1.86751L83.8522 1.56439L83.3613 2.43561L83.8992 2.73872L84.3902 1.86751ZM84.1068 2V1.99987H83.1068V2H84.1068ZM84.1068 1.99987V1H83.1068V1.99987H84.1068ZM83.6068 0.5H58.2983V1.5H83.6068V0.5ZM57.7983 0.999998L57.7983 2.00001L58.7983 2.00001L58.7983 1L57.7983 0.999998ZM57.181 1.96054L58.0591 2.43905L58.5376 1.56097L57.6595 1.08246L57.181 1.96054ZM34.3956 34.3268L57.8259 1.81383L57.0146 1.22918L33.5843 33.7421L34.3956 34.3268ZM33.4899 2V34.0345H34.4899V2H33.4899ZM32.9899 2.5H33.9899V1.5H32.9899V2.5ZM33.4899 35.6857V2H32.4899V35.6857H33.4899ZM33.9899 35.1857H32.9899V36.1857H33.9899V35.1857ZM33.4899 35.6677V35.6857H34.4899V35.6677H33.4899ZM34.2622 35.2466L34.2292 35.2287L33.7506 36.1067L33.7836 36.1247L34.2622 35.2466ZM57.8927 1.70768L33.6173 35.3933L34.4285 35.978L58.704 2.29233L57.8927 1.70768ZM57.2488 50.2607V40.1771H56.2488V50.2607H57.2488ZM88.0556 75.2526L57.0656 49.8739L56.4321 50.6476L87.422 76.0263L88.0556 75.2526ZM87.2388 40.1771V75.6395H88.2388V40.1771H87.2388ZM56.7488 40.6771L87.7388 40.6771V39.6771L56.7488 39.6771V40.6771ZM87.7388 89.5319H72.2438V90.5319H87.7388V89.5319ZM88.2388 127.658V90.0319H87.2388V127.658H88.2388ZM57.7488 128.158H87.7388V127.158H57.7488V128.158ZM57.2488 102.21V127.658H58.2488V102.21H57.2488ZM60.8808 101.71H57.7488V102.71H60.8808V101.71ZM60.3808 101.71V102.21H61.3808V101.71H60.3808ZM61.8808 101.21H60.8808V102.21H61.8808V101.21ZM61.3808 81.7318V101.71H62.3808V81.7318H61.3808ZM72.5564 89.6416L62.1934 81.3415L61.5683 82.122L71.9312 90.4221L72.5564 89.6416ZM55.3483 40.0073L51.1137 45.6747L51.9148 46.2732L56.1494 40.6058L55.3483 40.0073ZM56.2488 49.4418V40.3066H55.2488V49.4418H56.2488ZM51.1974 46.3608L55.4321 49.8287L56.0656 49.055L51.831 45.5871L51.1974 46.3608Z" fill="white"/>
</svg>
