<svg xmlns="http://www.w3.org/2000/svg" version="1.1" xmlns:xlink="http://www.w3.org/1999/xlink" xmlns:svgjs="http://svgjs.com/svgjs" width="1440" height="560" preserveAspectRatio="none" viewBox="0 0 1440 560">
    <g mask="url(&quot;#SvgjsMask1000&quot;)" fill="none">
        <rect width="1440" height="560" x="0" y="0" fill="#0e2a47"></rect>
        <path d="M0,340.869C62.92,345.456,111.654,290.321,166.129,258.502C223.33,225.091,294.763,207.153,327.51,149.569C360.988,90.698,359.593,16.095,341.015,-49.031C323.592,-110.106,265.448,-146.322,228.389,-197.9C186.541,-256.143,176.369,-346.729,109.151,-371.733C42.341,-396.585,-29.155,-348.758,-93.238,-317.538C-148.884,-290.428,-199.299,-254.244,-235.324,-203.91C-269.242,-156.519,-276.145,-98.238,-290.602,-41.782C-306.949,22.053,-355.22,89.833,-325.62,148.706C-295.864,207.891,-208.31,201.697,-151.26,235.365C-97.224,267.254,-62.578,336.307,0,340.869" fill="#0b2239"></path>
        <path d="M1440 1116.259C1543.466 1109.317 1631.169 1049.209 1719.804 995.383 1810.7069999999999 940.1800000000001 1911.1100000000001 891.698 1962.817 798.762 2016.317 702.602 2037.788 584.186 2007.4279999999999 478.416 1978.336 377.063 1886.8609999999999 309.725 1803.8 244.765 1733.221 189.567 1651.383 158.12900000000002 1565.45 132.75799999999998 1479.394 107.35000000000002 1387.009 62.877999999999986 1304.12 97.23700000000002 1221.97 131.289 1210.471 243.81599999999997 1147.076 306.18 1075.405 376.685 945.2909999999999 389.428 911.021 483.944 876.854 578.176 940.892 677.8389999999999 978.654 770.689 1017.972 867.365 1051.449 972.054 1134.979 1034.622 1220.961 1099.0259999999998 1332.813 1123.451 1440 1116.259" fill="#113255"></path>
    </g>
    <defs>
        <mask id="SvgjsMask1000">
            <rect width="1440" height="560" fill="#ffffff"></rect>
        </mask>
    </defs>
</svg>