<svg xmlns="http://www.w3.org/2000/svg" version="1.1" xmlns:xlink="http://www.w3.org/1999/xlink" xmlns:svgjs="http://svgjs.com/svgjs" width="1440" height="560" preserveAspectRatio="none" viewBox="0 0 1440 560"><g mask="url(&quot;#SvgjsMask1063&quot;)" fill="none"><rect width="1440" height="560" x="0" y="0" fill="rgba(35, 55, 137, 1)"></rect><path d="M0,369.003C66.739,352.676,124.342,320.203,184.779,287.522C250.582,251.938,335.339,235.271,369.949,168.95C404.757,102.249,364.015,23.165,361.982,-52.045C359.616,-139.574,405.564,-236.487,357.021,-309.36C308.44,-382.291,206.123,-391.086,121.351,-413.284C38.885,-434.878,-44.534,-453.045,-128.139,-436.401C-216.787,-418.753,-310.997,-388.777,-365.179,-316.429C-418.485,-245.251,-405.525,-147.828,-410.737,-59.055C-415.516,22.357,-420.992,103.013,-394.328,180.083C-365.778,262.604,-332.469,357.068,-253.72,394.796C-175.471,432.285,-84.281,389.621,0,369.003" fill="#1e2f75"></path><path d="M1440 997.7280000000001C1529.453 1004.5350000000001 1634.099 1026.296 1701.962 967.62 1770.3020000000001 908.5319999999999 1732.683 792.972 1771.286 711.293 1810.703 627.894 1919.4 581.737 1927.757 489.871 1936.341 395.515 1879.055 304.848 1814.577 235.42700000000002 1751.267 167.264 1665.244 118.173 1572.805 107.70800000000003 1486.648 97.95400000000001 1404.855 139.24200000000002 1328.541 180.404 1264.041 215.19400000000002 1227.914 281.478 1169.237 325.382 1088.778 385.58500000000004 949.261 388.952 920.96 485.373 893.779 577.979 996.142 657.588 1047.801 739.111 1092.487 809.629 1132.768 883.656 1202.464 929.613 1272.651 975.895 1356.169 991.3489999999999 1440 997.7280000000001" fill="#283f9e"></path></g><defs><mask id="SvgjsMask1063"><rect width="1440" height="560" fill="#ffffff"></rect></mask></defs></svg>